<?xml version="1.0" standalone="no"?>
<!DOCTYPE svg PUBLIC "-//W3C//DTD SVG 20010904//EN"
 "http://www.w3.org/TR/2001/REC-SVG-20010904/DTD/svg10.dtd">
<svg version="1.0" xmlns="http://www.w3.org/2000/svg"
 width="924.000000pt" height="924.000000pt" viewBox="0 0 924.000000 924.000000"
 preserveAspectRatio="xMidYMid meet">
<metadata>
Created by potrace 1.11, written by Peter Selinger 2001-2013
</metadata>
<g transform="translate(0.000000,924.000000) scale(0.100000,-0.100000)"
fill="#000000" stroke="none">
<path d="M4500 9214 c-90 -17 -247 -82 -258 -106 -2 -5 -8 -8 -12 -8 -5 0 -75
-39 -157 -86 -81 -47 -166 -96 -188 -109 -22 -12 -67 -38 -100 -57 -33 -19
-76 -44 -95 -54 -19 -10 -36 -22 -38 -26 -2 -5 -7 -8 -12 -8 -4 0 -74 -39
-156 -87 -82 -47 -165 -95 -184 -105 -19 -11 -48 -27 -65 -36 -16 -10 -45 -27
-62 -40 -18 -13 -33 -21 -33 -18 0 3 -24 -9 -52 -28 -29 -18 -75 -45 -103 -61
-64 -35 -302 -173 -335 -193 -14 -9 -27 -15 -30 -15 -3 0 -16 -7 -30 -17 -21
-14 -346 -203 -465 -270 -19 -10 -52 -30 -74 -45 -23 -14 -41 -22 -41 -18 0 5
-4 3 -8 -2 -9 -13 -130 -85 -143 -85 -5 0 -9 -4 -9 -10 0 -5 -4 -10 -9 -10 -6
0 -61 -30 -123 -66 -62 -37 -135 -78 -163 -93 -27 -14 -52 -28 -55 -32 -3 -3
-25 -16 -50 -30 -25 -13 -47 -27 -50 -30 -3 -4 -15 -9 -27 -13 -13 -4 -23 -12
-23 -17 0 -6 -4 -8 -9 -5 -5 3 -14 -1 -21 -9 -7 -8 -16 -15 -20 -15 -12 0
-204 -113 -212 -125 -4 -5 -8 -6 -8 -2 0 4 -20 -6 -45 -23 -25 -17 -45 -28
-45 -25 0 3 -6 1 -13 -5 -6 -6 -45 -30 -86 -54 -156 -92 -264 -220 -315 -372
-16 -48 -19 -60 -32 -129 -11 -57 -5 -4140 6 -4140 1 0 3 -11 6 -25 2 -14 7
-36 11 -50 3 -14 7 -27 8 -30 0 -3 6 -15 13 -27 7 -13 10 -23 6 -23 -4 0 1 -9
11 -20 10 -11 15 -20 11 -20 -14 0 74 -118 126 -169 50 -50 244 -179 260 -173
5 1 8 -2 8 -8 0 -5 4 -10 9 -10 4 0 68 -35 142 -78 130 -76 169 -99 274 -158
28 -15 52 -32 53 -36 2 -4 8 -8 14 -8 6 0 60 -29 120 -65 61 -36 114 -65 118
-65 4 0 13 -7 20 -15 7 -8 21 -15 31 -15 11 0 19 -4 19 -8 0 -5 19 -18 42 -30
24 -13 61 -34 83 -47 22 -14 47 -28 55 -32 8 -4 63 -35 122 -70 59 -35 111
-63 117 -63 6 0 11 -4 11 -9 0 -5 8 -11 18 -14 9 -4 35 -17 57 -30 103 -63
358 -207 365 -207 5 0 10 -4 12 -8 4 -9 129 -80 142 -80 5 0 12 -4 15 -9 3 -5
33 -25 66 -44 33 -19 67 -38 76 -44 9 -5 40 -23 70 -40 30 -16 62 -34 71 -40
22 -13 124 -73 163 -95 17 -10 54 -31 83 -49 29 -17 55 -31 58 -31 2 0 21 -11
42 -23 20 -13 51 -32 67 -43 17 -10 32 -19 35 -19 3 0 48 -26 100 -57 52 -30
111 -65 130 -75 19 -11 80 -46 135 -78 55 -32 120 -69 143 -82 24 -14 65 -38
90 -53 123 -75 245 -130 290 -130 12 0 22 -4 22 -8 0 -10 232 -8 274 2 67 16
145 49 230 97 50 29 105 60 123 70 17 10 49 29 70 42 21 13 65 39 98 57 71 40
63 35 335 192 118 68 235 135 260 149 25 13 47 26 50 29 3 3 43 28 90 54 47
27 100 57 118 67 67 39 99 58 172 99 41 23 95 55 120 70 25 15 67 40 95 55 57
31 297 170 335 194 14 8 39 22 55 31 17 9 48 27 70 40 22 13 54 30 70 38 17 9
32 18 35 22 3 3 37 24 75 45 39 22 78 44 87 50 9 5 41 23 70 39 29 16 64 36
78 46 14 10 35 21 48 24 12 4 22 11 22 16 0 4 8 10 18 13 9 3 40 20 67 36 28
17 57 34 65 38 8 4 86 49 173 100 88 51 161 93 163 93 2 0 38 21 81 46 124 73
248 145 303 176 83 48 155 107 210 174 73 88 133 228 145 336 8 70 8 4052 0
4110 -10 74 -11 78 -30 128 -62 166 -162 284 -318 378 -48 28 -92 52 -97 52
-6 0 -10 5 -10 10 0 6 -4 10 -10 10 -5 0 -70 36 -146 80 -75 44 -140 80 -145
80 -5 0 -9 5 -9 10 0 6 -5 10 -11 10 -6 0 -39 17 -73 37 -33 21 -63 38 -66 38
-3 0 -16 8 -30 17 -26 16 -125 74 -200 116 -25 14 -76 44 -115 67 -38 22 -77
44 -85 48 -8 4 -24 13 -35 20 -91 56 -167 99 -225 129 -14 7 -27 15 -30 18 -8
8 -41 27 -90 52 -25 13 -47 26 -50 29 -3 3 -52 32 -110 65 -57 32 -114 65
-125 71 -11 7 -32 18 -47 25 -16 7 -28 16 -28 20 0 4 -4 8 -9 8 -5 0 -39 18
-75 40 -36 22 -68 40 -70 40 -2 0 -51 28 -108 62 -56 34 -119 70 -138 80 -19
10 -42 23 -50 28 -13 9 -44 26 -155 90 -16 9 -86 49 -154 89 -68 39 -127 71
-131 71 -5 0 -10 4 -12 8 -1 5 -28 22 -58 38 -78 43 -131 73 -332 191 -98 57
-182 103 -188 103 -6 0 -13 7 -16 15 -4 8 -14 15 -23 15 -9 0 -22 5 -27 10
-27 27 -202 113 -265 130 -90 25 -208 30 -299 14z m201 -1491 c76 -46 107 -64
189 -109 19 -11 46 -27 60 -36 46 -29 115 -68 143 -80 15 -7 27 -16 27 -20 0
-4 4 -8 10 -8 5 0 86 -45 180 -100 95 -55 174 -100 176 -100 3 0 25 -14 50
-30 24 -17 44 -28 44 -24 0 4 8 0 18 -8 9 -9 33 -24 52 -33 19 -10 37 -21 40
-24 3 -3 19 -13 35 -22 66 -34 120 -64 125 -69 3 -3 15 -11 27 -17 117 -65
200 -114 210 -123 7 -5 14 -10 17 -10 2 0 44 -23 93 -51 48 -28 104 -60 123
-71 19 -11 40 -24 45 -28 6 -4 35 -21 65 -37 30 -17 73 -40 95 -53 22 -13 49
-28 60 -34 11 -7 35 -21 53 -33 l34 -21 -74 -42 c-40 -24 -93 -55 -118 -69
-25 -15 -52 -31 -60 -35 -8 -4 -24 -12 -35 -19 -11 -7 -51 -30 -90 -52 -38
-21 -110 -63 -158 -92 -48 -29 -90 -53 -92 -53 -3 0 -33 -17 -67 -38 -35 -21
-70 -42 -78 -46 -8 -4 -24 -12 -35 -19 -11 -7 -63 -37 -115 -67 -52 -30 -103
-59 -112 -65 -9 -5 -41 -23 -70 -39 -29 -15 -60 -34 -69 -42 -8 -8 -18 -14
-21 -14 -4 0 -52 -27 -108 -60 -56 -33 -105 -60 -110 -60 -5 0 -15 -6 -22 -13
-12 -12 -159 -97 -183 -106 -5 -2 -17 -9 -25 -16 -8 -7 -42 -27 -75 -45 -33
-17 -64 -35 -70 -40 -5 -4 -30 -18 -55 -32 -25 -14 -82 -46 -126 -72 l-82 -47
-40 20 c-22 11 -44 25 -47 31 -4 6 -11 8 -16 5 -5 -4 -9 -1 -9 4 0 6 -5 11
-10 11 -6 0 -27 11 -48 23 -33 21 -79 48 -162 94 -14 8 -38 23 -55 33 -16 11
-37 23 -45 27 -8 4 -37 20 -65 36 -60 36 -115 67 -206 119 -13 7 -27 18 -31
23 -4 6 -8 6 -8 1 0 -5 -8 -2 -17 6 -10 8 -61 39 -113 69 -52 30 -103 59 -112
64 -9 6 -41 23 -70 39 -29 16 -65 37 -80 47 -14 11 -31 19 -36 19 -6 0 -12 3
-14 8 -3 7 -66 43 -115 66 -13 6 -23 14 -23 19 0 4 -5 7 -11 7 -6 0 -37 15
-68 34 -31 19 -78 46 -106 62 -27 15 -66 37 -85 49 -19 12 -38 22 -41 21 -4
-1 -15 6 -25 14 -11 8 -28 20 -40 27 -113 62 -310 179 -315 186 -3 5 -9 8 -13
8 -47 -6 -21 18 77 74 45 26 98 56 117 68 19 11 60 33 90 50 30 16 62 35 70
42 8 7 20 14 25 16 25 10 150 84 153 91 2 4 8 8 13 8 5 0 75 38 155 85 81 47
150 85 155 85 5 0 9 5 9 10 0 6 6 10 14 10 7 0 25 9 38 20 14 10 28 16 32 13
3 -3 6 -1 6 5 0 7 4 12 9 12 12 0 155 83 159 92 2 5 7 8 12 8 5 0 48 23 97 51
105 61 151 87 218 125 28 15 52 30 55 33 3 3 21 14 40 24 62 33 95 52 100 58
3 3 20 11 38 18 17 8 32 17 32 22 0 4 9 10 19 14 11 3 80 41 153 85 73 43 134
79 136 79 1 1 39 -20 83 -46z m-2736 -2354 c22 -12 51 -29 65 -36 14 -8 39
-23 55 -33 17 -11 44 -26 60 -35 17 -8 44 -23 60 -34 17 -10 47 -28 67 -39 40
-23 390 -225 473 -274 28 -16 62 -34 78 -41 15 -6 27 -15 27 -19 0 -4 4 -8 9
-8 5 0 56 -28 113 -61 56 -34 126 -75 155 -90 77 -42 97 -53 103 -59 3 -3 14
-10 25 -16 56 -30 91 -50 95 -54 5 -5 41 -26 100 -57 19 -10 37 -20 40 -23 5
-6 117 -70 230 -133 30 -17 57 -34 58 -39 2 -4 12 -8 23 -8 10 0 19 -4 19 -10
0 -5 11 -12 25 -16 14 -3 25 -10 25 -15 0 -5 6 -9 13 -9 6 0 23 -9 37 -19 l24
-19 1 -1181 c0 -650 -2 -1181 -3 -1181 -9 0 -207 115 -210 122 -2 4 -7 8 -12
8 -7 0 -63 31 -285 160 -67 38 -306 176 -393 227 -51 29 -97 53 -102 53 -6 0
-10 4 -10 8 0 5 -12 14 -27 21 -16 7 -39 20 -53 29 -14 9 -27 17 -30 17 -7 2
-67 36 -106 62 -19 12 -34 20 -34 17 0 -3 -7 2 -16 10 -8 9 -22 16 -30 16 -8
0 -14 5 -14 10 0 6 -4 10 -9 10 -6 0 -38 17 -73 37 -110 65 -122 72 -178 103
-30 17 -77 44 -105 61 -27 16 -58 33 -67 36 -10 3 -18 9 -18 13 0 4 -8 10 -17
13 -10 4 -43 21 -74 39 -31 18 -86 50 -123 71 l-66 38 0 1178 c0 648 3 1181 7
1184 3 4 11 3 17 -2 6 -5 29 -19 51 -32z m5385 -1144 c0 -1120 -1 -1186 -17
-1192 -10 -4 -20 -9 -23 -13 -9 -11 -169 -100 -180 -100 -5 0 -10 -4 -10 -9 0
-5 -8 -11 -17 -15 -10 -3 -40 -20 -68 -36 -27 -17 -58 -34 -67 -37 -10 -3 -18
-9 -18 -14 0 -5 -5 -9 -11 -9 -6 0 -45 -20 -86 -45 -40 -25 -78 -45 -83 -45
-6 0 -10 -4 -10 -10 0 -5 -5 -10 -10 -10 -9 0 -170 -91 -300 -169 -19 -11 -41
-24 -49 -28 -8 -3 -64 -35 -125 -71 -61 -36 -127 -74 -146 -85 -165 -93 -197
-112 -211 -124 -9 -7 -19 -10 -22 -6 -4 3 -7 2 -7 -4 0 -6 -8 -13 -17 -16 -10
-4 -36 -17 -58 -31 -22 -14 -62 -37 -90 -51 -27 -15 -57 -33 -66 -41 -8 -8
-18 -14 -21 -14 -3 0 -76 -41 -162 -90 -86 -50 -162 -91 -168 -93 -9 -1 -12
304 -12 1176 -1 1036 1 1180 14 1190 15 12 30 21 98 58 20 11 51 29 67 40 17
10 36 22 44 26 8 3 64 35 125 71 61 36 131 76 156 90 25 14 78 44 117 68 40
24 75 44 79 44 3 0 18 8 32 19 15 10 47 29 72 43 25 14 62 35 83 47 20 11 54
30 75 42 20 12 42 25 47 29 6 4 30 19 55 32 25 14 159 91 298 171 140 81 258
147 263 147 5 0 9 5 9 10 0 6 7 10 15 10 8 0 15 5 15 12 0 6 3 9 6 5 4 -3 23
5 43 18 19 14 41 25 48 25 7 0 13 4 13 8 0 5 23 19 50 32 28 13 50 27 50 32 0
4 6 8 13 8 6 1 46 21 87 45 41 25 76 45 78 45 1 0 2 -533 2 -1185z"/>
</g>
</svg>
